<svg width="50" height="50" viewBox="0 0 50 50" fill="none" xmlns="http://www.w3.org/2000/svg">
<g clip-path="url(#clip0_1208_55805)">
<path d="M26.3494 46.3086C27.6279 47.3625 29.53 47.1868 30.4754 45.8261C34.7221 39.7141 37.013 32.4266 36.9999 24.9363C36.9869 17.446 34.6705 10.1666 30.4026 4.06938C29.4524 2.71203 27.5497 2.54293 26.2749 3.60128L3.29013 22.6836C1.84192 23.8859 1.84581 26.1094 3.2982 27.3067L26.3494 46.3086Z" fill="url(#paint0_linear_1208_55805)"/>
<path d="M36.3217 49.171C37.6002 50.2249 39.501 50.0486 40.4586 48.6965C45.3648 41.7694 48.0148 33.4662 47.9999 24.9284C47.985 16.3907 45.3061 8.09678 40.3757 1.18688C39.4134 -0.161847 37.512 -0.33152 36.2372 0.726824L20.3491 13.9174C19.0743 14.9757 18.9322 16.8581 19.7029 18.3247C20.774 20.3631 21.3459 22.643 21.35 24.975C21.354 27.3069 20.7901 29.5888 19.7261 31.6309C18.9606 33.1002 19.1092 34.9821 20.3877 36.036L36.3217 49.171Z" fill="#0073E6"/>
<path fill-rule="evenodd" clip-rule="evenodd" d="M31.1129 44.8776C34.9508 38.9669 37.0123 32.0431 36.9999 24.9367C36.9875 17.8363 34.9053 10.9253 31.053 5.03125L20.349 13.9178C19.0743 14.9762 18.9322 16.8585 19.7029 18.3252C20.774 20.3635 21.3459 22.6435 21.3499 24.9754C21.354 27.3073 20.7901 29.5893 19.7261 31.6313C18.9605 33.1007 19.1092 34.9825 20.3876 36.0364L31.1129 44.8776Z" fill="url(#paint1_linear_1208_55805)"/>
</g>
<defs>
<linearGradient id="paint0_linear_1208_55805" x1="0.499487" y1="-1.02395" x2="0.499487" y2="42.2012" gradientUnits="userSpaceOnUse">
<stop stop-color="#FFBE07"/>
<stop offset="1" stop-color="#F1B60F"/>
</linearGradient>
<linearGradient id="paint1_linear_1208_55805" x1="37" y1="30.5928" x2="21.3869" y2="30.5928" gradientUnits="userSpaceOnUse">
<stop stop-color="#00299C"/>
<stop offset="1" stop-color="#0073E6"/>
</linearGradient>
<clipPath id="clip0_1208_55805">
<rect width="50" height="50" fill="white"/>
</clipPath>
</defs>
</svg>
