<svg width="50" height="50" viewBox="0 0 50 50" fill="none" xmlns="http://www.w3.org/2000/svg">
<path d="M47.9445 22.9445L27.0555 2.05546C25.9203 0.920262 24.0797 0.920258 22.9445 2.05546L2.05549 22.9445C0.920288 24.0797 0.920285 25.9202 2.05549 27.0554L22.9445 47.9445C24.0797 49.0797 25.9203 49.0797 27.0555 47.9445L47.9445 27.0554C49.0797 25.9202 49.0797 24.0797 47.9445 22.9445Z" fill="#00D924"/>
<path d="M39.6776 7.32227H10.3223C8.66541 7.32227 7.32227 8.66541 7.32227 10.3223V39.6776C7.32227 41.3344 8.66541 42.6776 10.3223 42.6776H39.6776C41.3344 42.6776 42.6776 41.3344 42.6776 39.6776V10.3223C42.6776 8.66541 41.3344 7.32227 39.6776 7.32227Z" fill="url(#paint0_linear_3198_48903)"/>
<path d="M32.3242 7.32227H17.6758L7.32227 17.6836V32.3281L17.6797 42.6776H32.3242L42.6776 32.3242V17.6836L32.3242 7.32227Z" fill="url(#paint1_linear_3198_48903)"/>
<defs>
<linearGradient id="paint0_linear_3198_48903" x1="24.9997" y1="12.396" x2="24.9997" y2="33.3308" gradientUnits="userSpaceOnUse">
<stop stop-color="#FFBE07"/>
<stop offset="1" stop-color="#F1B60F"/>
</linearGradient>
<linearGradient id="paint1_linear_3198_48903" x1="8.5" y1="42.6776" x2="34" y2="17.5" gradientUnits="userSpaceOnUse">
<stop stop-color="#00A600"/>
<stop offset="1" stop-color="#00D924"/>
</linearGradient>
</defs>
</svg>
