<svg width="50" height="50" viewBox="0 0 50 50" fill="none" xmlns="http://www.w3.org/2000/svg">
<path d="M25 2C12.2063 2 1.65715 11.6101 0.177504 24.0054C-0.0188833 25.6506 1.34315 27 3 27H47C48.6569 27 50.0189 25.6506 49.8225 24.0054C48.3428 11.6101 37.7937 2 25 2Z" fill="url(#paint0_linear_1208_55736)"/>
<path d="M2.15364 35.6168C0.967753 36.7908 0.961753 38.7194 2.24299 39.7885C15.3642 50.7372 34.6357 50.7372 47.757 39.7885C49.0382 38.7194 49.0322 36.7908 47.8463 35.6168L27.1105 15.0894C25.9415 13.932 24.0584 13.932 22.8894 15.0894L2.15364 35.6168Z" fill="#9966FF"/>
<path d="M10.8579 27L22.8894 15.0894C24.0585 13.932 25.9415 13.932 27.1106 15.0894L39.1421 27H10.8579Z" fill="url(#paint1_linear_1208_55736)"/>
<defs>
<linearGradient id="paint0_linear_1208_55736" x1="24.9996" y1="5.58769" x2="24.9996" y2="20.3908" gradientUnits="userSpaceOnUse">
<stop stop-color="#FFBE07"/>
<stop offset="1" stop-color="#F1B60F"/>
</linearGradient>
<linearGradient id="paint1_linear_1208_55736" x1="39.1421" y1="2.5" x2="39.1421" y2="31.5" gradientUnits="userSpaceOnUse">
<stop stop-color="#0048E5"/>
<stop offset="1" stop-color="#9B66FF"/>
</linearGradient>
</defs>
</svg>
